@startuml
left to right direction

class ShowFreelancerPerformanceStatisticsUI {}

class ShowFreelancerPerformanceStatisticsController {
    +RegistryOrganizarions getOrganizations()
    +TreeMap<String, List<Double>> determinePaymentPlatform()
    +TreeMap<String, List<Double>> determineDelayPlatform()
    +TreeMap<String, Double> calculateMeanPayment()
    +TreeMap<String, Double> calculateDeviationPayment()
    +TreeMap<String, Double> calculateMeanDelay()
    +TreeMap<String, Double> calculateDeviationDelay()
    +TreeMap<String, List<Double>> determinePaymentOrganization()
    +TreeMap<String, List<Double>> determineDelayOrganization()
    +double calculateNormalDistribution()
}

class Platform {
    -String name
    +RegistryOrganization getRegistryOrganizations()
}

class RegistryOrganizations {
    +List<Organization> getLstOrganizations()
    +TreeMap<String, List<Double>> determinePaymentPlatform()
    +TreeMap<String, List<Double>> determineDelayPlatform()
    +TreeMap<String, Double> calculateMeanPayment(mapTotalPayments)
    +TreeMap<String, Double> calculateDeviationPayment(mapTotalPayments, mapMeanPayments)
    +TreeMap<String, Double> calculateMeanDelay(mapTotalDelays)
    +TreeMap<String, Double> calculateDeviationDelay(mapTotalDelays, mapMeanDelays)
    +double calculateNormalDistribution()
}

class Organization {
    -String name
    -String nif
    -Date payDayDate
    +TreeMap<String, List<Double>> determinePaymentOrganization(mapOrganizationPayments)
    +TreeMap<String, List<Double>> determineDelayOrganization(mapOrganizationDelays)
    +int determineNumberOfTasks()
}

class ListTransactions{
    +List<Transaction> getLstTransactions()
}


class Execution {
    - Date finishDate
    - double delayHours
    - String briefDescription
    + double getDelay()
}


class Transaction {
    - String id
    + Execution getExecution()
    + Freelancer getFreelancer()
    + double computeAmount()
    + double calculateNormalDistribution()
}

class Freelancer {
    - String freelancerID
    - String name
    - String expertise
    - String email
    - String nif
    - String iban
    - String address
    - String country
    + String getFreelancerID()
}

class Task {
    - String taskID
    - String taskDescription
    - double taskDurationInHours
    - double taskCostPerHour
    - String taskCategory

}

ShowFreelancerPerformanceStatisticsUI ..> ShowFreelancerPerformanceStatisticsController
ShowFreelancerPerformanceStatisticsController ..> Platform
Platform "1" -- "1" RegistryOrganizations : has >
RegistryOrganizations "1" -- "*" Organization : has >
Organization "1" -- "1" ListTransactions : has >
ListTransactions "1" -- "*" Transaction : has registries of >
Organization "1" -- "*" Task: has >
Task "1" -- "0.." Execution : details >
Freelancer "1" -- "*" Task : executes >
Transaction "1" -- "1" Task : specifies >
Transaction "1" -- "1" Execution : has >
Transaction "1" -- "1" Freelancer : has information about >
@enduml
